<svg xmlns="http://www.w3.org/2000/svg" version="1.1" xmlns:xlink="http://www.w3.org/1999/xlink" xmlns:svgjs="http://svgjs.com/svgjs" width="1440" height="560" preserveAspectRatio="none" viewBox="0 0 1440 560"><g mask="url(&quot;#SvgjsMask1881&quot;)" fill="none"><rect width="1440" height="560" x="0" y="0" fill="url(#SvgjsLinearGradient1882)"></rect><path d="M1619.94 410.93C1445.43 405.26 1315.68 141.9 977.69 136.53 639.7 131.16 500.2-10.36 335.44-11.31" stroke="rgba(51,121,194,0.58)" stroke-width="2"></path><path d="M1529.68 161C1388.03 163.57 1201.11 347.34 993.98 345.8 786.85 344.26 833.73 6.54 726.13-40.94" stroke="rgba(51,121,194,0.58)" stroke-width="2"></path><path d="M1648.67 373.61C1497.31 373.05 1303.94 268.53 1054.75 256.01 805.56 243.49 864.83-45.36 757.79-76.22" stroke="rgba(51,121,194,0.58)" stroke-width="2"></path><path d="M1649.92 351.62C1459.37 348.91 1209.51 126.37 923.06 122.02 636.61 117.67 655.54 0.6 559.63-1.06" stroke="rgba(51,121,194,0.58)" stroke-width="2"></path><path d="M1665.54 238.5C1556.44 241.49 1479.37 407.37 1260.3 400.9 1041.24 394.43 1006.87-44.35 855.07-95.66" stroke="rgba(51,121,194,0.58)" stroke-width="2"></path></g><defs><mask id="SvgjsMask1881"><rect width="1440" height="560" fill="#ffffff"></rect></mask><linearGradient x1="15.28%" y1="-39.29%" x2="84.72%" y2="139.29%" gradientUnits="userSpaceOnUse" id="SvgjsLinearGradient1882"><stop stop-color="#0e2a47" offset="0"></stop><stop stop-color="rgba(0, 0, 0, 1)" offset="1"></stop></linearGradient></defs></svg>